<svg width="108" height="32" viewBox="0 0 108 32" fill="none" xmlns="http://www.w3.org/2000/svg">
<g clip-path="url(#clip0_14_32)">
<path fill-rule="evenodd" clip-rule="evenodd" d="M0 0H62.1001V32H8.10011C3.62661 32 0.000118623 28.4183 0.000100181 24L0 0Z" fill="#EF3B3B"/>
<path d="M16.19 20.6862C15.9877 20.8201 15.7853 21.0209 15.5829 21.1548C15.3806 21.2887 15.1107 21.4895 14.8409 21.6234C14.5711 21.7573 14.3012 21.8912 13.9639 21.9582C13.6266 22.0251 13.2894 22.0921 12.8846 22.0921C12.3449 22.0921 11.8727 22.0251 11.4005 21.8243C10.9283 21.6904 10.591 21.4226 10.2538 21.1548C9.91646 20.8201 9.64663 20.4854 9.51171 20.0837C9.30934 19.682 9.24188 19.1465 9.24188 18.6778C9.24188 18.0753 9.3768 17.6067 9.57917 17.1381C9.78155 16.6695 10.1188 16.2678 10.4561 15.9331C10.8609 15.5983 11.2656 15.3975 11.8053 15.1967C12.3449 14.9958 12.9521 14.9289 13.5592 14.9289C14.0314 14.9289 14.4361 14.9289 14.8409 14.9958C15.2456 15.0628 15.5829 15.1297 15.9202 15.1967V14.728C15.9202 14.4603 15.8528 14.2594 15.7853 13.9916C15.7178 13.7908 15.5829 13.523 15.3806 13.3891C15.1782 13.1883 14.9083 13.0544 14.6385 12.9205C14.3012 12.7866 13.9639 12.7866 13.4917 12.7866C12.9521 12.7866 12.4124 12.8536 11.8727 12.9875C11.3331 13.1213 10.726 13.3222 10.1188 13.523V11.4477C10.6585 11.1799 11.2656 11.046 11.8727 10.9121C12.4799 10.7783 13.1544 10.7113 13.829 10.7113C14.6385 10.7113 15.3131 10.7783 15.9202 10.9791C16.5273 11.1799 16.9995 11.4477 17.4043 11.7824C17.809 12.1172 18.0789 12.5188 18.2812 12.9875C18.4836 13.4561 18.5511 13.9247 18.5511 14.5272V18.6109C18.5511 19.3473 18.5511 19.9498 18.5511 20.4854C18.5511 21.0209 18.5511 21.4895 18.6185 21.8912H16.19V20.6862ZM15.9877 17.272C15.7178 17.205 15.448 17.1381 15.1107 17.1381C14.7734 17.0711 14.4361 17.0711 14.0989 17.0711C13.4243 17.0711 12.9521 17.205 12.5473 17.4728C12.1426 17.7406 12.0077 18.1423 12.0077 18.6778C12.0077 18.9456 12.0751 19.1465 12.1426 19.3473C12.21 19.5481 12.3449 19.682 12.4799 19.8159C12.6148 19.9498 12.8172 20.0167 13.0195 20.0837C13.2219 20.1506 13.4243 20.1506 13.6266 20.1506C13.8965 20.1506 14.1663 20.0837 14.3687 20.0167C14.6385 19.9498 14.8409 19.8829 15.0433 19.749C15.2456 19.6151 15.448 19.5481 15.5829 19.4142C15.7178 19.2803 15.8528 19.1465 15.9877 19.0126V17.272Z" fill="white"/>
<path d="M26.4437 22.159C25.3644 22.159 24.42 21.9582 23.7454 21.6235C23.0033 21.2888 22.4637 20.7532 22.1264 20.1507C21.924 19.816 21.7891 19.4812 21.7216 19.0126C21.6542 18.6109 21.5867 18.1423 21.5867 17.6737V11.0461H24.285V17.4059C24.285 17.7406 24.285 18.0754 24.3525 18.3432C24.42 18.6109 24.4874 18.8118 24.6223 19.0126C24.8247 19.3473 25.0271 19.6151 25.3644 19.749C25.7017 19.8829 26.1064 20.0168 26.5786 20.0168C27.0508 20.0168 27.4556 19.9498 27.7929 19.749C28.1302 19.5482 28.4 19.2804 28.5349 18.9457C28.7373 18.6109 28.8047 18.0754 28.8047 17.4729V11.0461H31.503V17.6737C31.503 18.544 31.3681 19.2804 31.0308 19.8829C30.8285 20.2176 30.6261 20.5524 30.3563 20.8201C30.0864 21.0879 29.7491 21.3557 29.4118 21.5565C29.0071 21.7574 28.6024 21.8913 28.1302 22.0252C27.5905 22.0921 27.0508 22.159 26.4437 22.159Z" fill="white"/>
<path d="M40.8799 21.8243C40.6101 21.8912 40.2053 21.9582 39.8006 22.0251C39.3958 22.0921 38.9911 22.0921 38.6538 22.0921C37.7094 22.0921 36.9673 21.9582 36.4277 21.6234C35.8205 21.3557 35.4158 20.887 35.2134 20.3515C35.0111 19.9498 34.9436 19.4142 34.9436 18.7448V13.1214H32.9199V10.9121H34.9436V7.8996H37.6419V10.9121H40.8124V13.1214H37.6419V18.4101C37.6419 18.8117 37.7094 19.1465 37.8443 19.3473C38.0467 19.682 38.5189 19.8829 39.1934 19.8829C39.5307 19.8829 39.8006 19.8829 40.1379 19.8159C40.4751 19.749 40.745 19.682 41.0148 19.6151V21.8243H40.8799Z" fill="white"/>
<path d="M50.6613 16.4687C50.6613 15.8662 50.5938 15.3976 50.4589 14.929C50.324 14.4603 50.1216 14.1256 49.9192 13.7909C49.6494 13.4561 49.3796 13.2553 49.0423 13.1214C48.705 12.9875 48.3677 12.9206 47.963 12.9206C47.5582 12.9206 47.2209 12.9875 46.8836 13.1214C46.5463 13.2553 46.2765 13.5231 46.0067 13.7909C45.7368 14.0587 45.6019 14.4603 45.467 14.929C45.2646 15.3976 45.1972 15.8662 45.1972 16.4687C45.1972 17.0712 45.2646 17.5398 45.3996 18.0084C45.5345 18.4771 45.7368 18.8118 45.9392 19.0796C46.209 19.3474 46.4789 19.6151 46.8162 19.749C47.1535 19.8829 47.4908 19.9499 47.8955 19.9499C48.3002 19.9499 48.6375 19.8829 48.9748 19.749C49.3121 19.6151 49.5819 19.3474 49.8518 19.0796C50.1216 18.8118 50.2565 18.4101 50.3914 18.0084C50.5938 17.5398 50.6613 17.0043 50.6613 16.4687ZM53.427 16.4687C53.427 17.339 53.2921 18.0754 53.0223 18.8118C52.7525 19.4812 52.4152 20.0838 51.943 20.6193C51.4708 21.0879 50.8636 21.4896 50.1891 21.7574C49.5145 22.0252 48.7725 22.1591 47.8955 22.1591C47.0185 22.1591 46.2765 22.0252 45.6019 21.7574C44.9273 21.4896 44.3202 21.0879 43.848 20.6193C43.3758 20.1507 43.0385 19.5482 42.7687 18.8118C42.4989 18.1423 42.364 17.339 42.364 16.4687C42.364 15.5984 42.4989 14.862 42.7687 14.1256C43.0385 13.4561 43.3758 12.8536 43.848 12.3181C44.3202 11.8495 44.9273 11.4478 45.6019 11.18C46.2765 10.9122 47.0185 10.7783 47.8955 10.7783C48.7725 10.7783 49.5145 10.9122 50.1891 11.18C50.8636 11.4478 51.4708 11.8495 51.943 12.3181C52.4152 12.7867 52.7525 13.3892 53.0223 14.1256C53.2921 14.7951 53.427 15.5984 53.427 16.4687Z" fill="white"/>
<path d="M108 0H63.4501V32H108V0Z" fill="#1F2024"/>
<path d="M93.8196 28.9436C93.8196 28.5144 94.5257 28.4072 94.5257 28.8899C94.5257 29.3727 93.8196 29.4263 93.8196 28.9436Z" fill="white"/>
<path d="M97.0786 29.1046C95.8294 29.7483 94.8518 28.7291 95.2863 27.4953C95.5035 26.9589 95.8837 26.5297 96.4811 26.4225C96.6984 26.3688 97.2415 26.2615 97.4045 26.4225C97.5131 26.5297 97.4045 26.637 97.3501 26.8516C96.5898 26.4761 95.8294 27.1198 95.7208 27.8708C95.5578 28.7827 96.3182 29.1046 97.0786 28.7291C97.0243 28.89 97.0243 28.9973 97.0786 29.1046Z" fill="white"/>
<path d="M100.228 27.5489C100.228 28.2999 99.7937 29.0509 99.0333 29.2655C98.2729 29.4801 97.5668 28.9436 97.5668 28.139C97.5668 27.4417 98.0013 26.637 98.7074 26.4225C99.5221 26.2079 100.228 26.6907 100.228 27.5489ZM98.0557 28.139C98.0557 28.6754 98.4902 29.1046 99.0333 28.8364C99.5221 28.6218 99.7937 27.9244 99.7393 27.4417C99.685 26.9589 99.3048 26.637 98.816 26.798C98.3272 26.9589 98.0557 27.6562 98.0557 28.139Z" fill="white"/>
<path d="M100.609 29.2119C100.717 28.7291 100.826 28.1927 100.88 27.7099C100.934 27.549 100.934 27.3344 100.989 27.1735C100.989 27.0662 101.043 26.5298 101.097 26.4761C101.152 26.4225 101.423 26.4761 101.532 26.4761C101.532 26.6371 101.478 26.8516 101.478 27.0126C101.749 26.7443 101.966 26.4761 102.401 26.4225C102.781 26.4225 103.107 26.6371 103.107 27.0662C103.379 26.6371 104.085 26.2079 104.573 26.5834C104.954 26.9053 104.845 27.4417 104.736 27.8172C104.682 28.2463 104.573 28.6218 104.519 29.051C104.465 29.4264 104.356 29.3192 103.976 29.3192C104.085 28.8364 104.139 28.4072 104.248 27.9245C104.302 27.7099 104.356 27.4417 104.302 27.1735C104.193 26.7443 103.813 26.7443 103.487 26.9589C102.998 27.2808 102.944 27.9781 102.89 28.5145C102.89 28.6755 102.835 29.1582 102.727 29.2655C102.672 29.2655 102.455 29.2119 102.292 29.2119C102.401 28.7827 102.455 28.3 102.564 27.8708C102.672 27.388 102.727 26.4225 101.912 26.8516C101.369 27.1735 101.315 27.8708 101.206 28.4072C101.152 28.5682 101.152 29.051 101.043 29.1582C100.989 29.2655 100.717 29.2119 100.609 29.2119Z" fill="white"/>
<path fill-rule="evenodd" clip-rule="evenodd" d="M80.2413 9.36421C78.7205 9.14965 77.1998 8.93508 75.6247 8.72051C77.1998 8.34501 78.7748 7.91588 80.3499 7.54038C80.5672 7.48674 80.5672 7.48674 80.6758 7.37946C80.8387 7.11124 80.893 6.57482 81.0017 6.30661C81.2189 5.55562 81.4362 4.75099 81.6534 4C82.3595 4.64371 83.1198 5.28741 83.8259 5.87748C84.0432 6.0384 84.4234 6.52118 84.6949 6.62846C84.8035 6.62846 85.0208 6.57482 85.1294 6.52118C87.3562 6.0384 89.5831 5.55562 91.7556 5.07284C92.4616 4.91192 93.1677 4.75099 93.8738 4.59006C91.484 5.87748 89.0942 7.21853 86.7045 8.50594C87.5735 9.25693 88.3882 9.95428 89.2572 10.7053C87.6278 10.4907 86.0527 10.2761 84.4234 10.0079C83.8802 9.95428 83.8802 9.95428 83.3914 10.2225C82.5767 10.7053 81.762 11.2417 80.9473 11.7245C80.2956 12.1 79.6438 12.5291 79.0464 12.9046C79.4266 11.7245 79.8068 10.5443 80.2413 9.36421Z" fill="white"/>
<path fill-rule="evenodd" clip-rule="evenodd" d="M72.8003 18.6444C72.8546 18.9126 73.1262 20.5219 73.3435 20.5755C73.5607 20.6292 74.0495 20.4146 74.2668 20.361C74.8099 20.2 75.2987 19.9855 75.2987 19.3954C75.2987 18.8053 75.1901 18.1616 75.0272 17.6252C74.9185 17.1961 74.7556 16.5524 74.3754 16.2305C73.9952 15.9087 73.0719 16.1232 72.6917 16.3915C72.0943 16.8742 72.6917 18.108 72.8003 18.6444ZM73.4521 21.0583C73.6693 21.9166 73.9409 22.7749 74.1582 23.6331C74.3211 24.1696 74.484 25.2424 75.1358 25.3497C75.2987 25.3497 75.7332 25.1888 75.8962 25.3497C76.1134 25.6179 75.516 25.7252 75.4073 25.7788C74.5383 25.9934 73.6693 26.208 72.8546 26.4225C72.5831 26.4762 69.4873 27.4954 69.3786 27.1199C69.3243 26.9053 69.6502 26.8517 69.7588 26.798C70.0847 26.6371 70.1933 26.4225 70.1933 26.047C70.1933 25.2424 69.8674 24.4914 69.7045 23.7404C69.3243 22.1312 68.8898 20.5755 68.401 19.0199C68.2924 18.6444 68.1838 18.0007 67.7493 17.8398C67.532 17.7325 67.2061 17.9471 66.9889 17.8934C66.5544 17.6789 67.0975 17.4643 67.3147 17.4107C69.0528 16.9279 70.7908 16.4987 72.5288 16.0696C74.1038 15.6405 75.7332 15.1577 77.4169 15.1577C78.9377 15.1577 79.8067 16.8206 79.3722 18.2153C79.1006 18.9663 78.3945 19.3418 77.7428 19.7173C76.8738 20.2 75.8962 20.4146 74.9185 20.6828C75.7332 20.951 76.4936 21.0583 77.3083 20.7901C77.6342 20.6828 77.96 20.5219 78.2859 20.361C78.4489 20.2537 78.7747 20.0391 78.992 20.0928C79.2092 20.1464 79.2635 20.4683 79.3179 20.6292C79.4265 20.951 79.6437 21.2729 79.861 21.5947C80.3498 22.2384 80.9472 22.8822 81.6533 23.3113C81.9249 23.4722 82.1964 23.5795 82.5223 23.5795C82.6853 23.5795 82.9568 23.5259 82.9025 23.7941C82.8482 24.0086 82.3051 24.0623 82.1421 24.1159C81.7076 24.2232 81.2731 24.3305 80.8386 24.4378C80.0239 24.6523 79.1549 24.8669 78.3402 25.0815C78.123 25.1351 77.7428 25.3497 77.5255 25.1888C77.3083 25.0815 77.1454 24.5987 76.9824 24.3841C76.4393 23.6331 75.8962 22.8822 75.353 22.1312C75.1358 21.863 74.8099 21.1656 74.484 20.951C74.2125 20.7365 73.7237 21.0047 73.4521 21.0583ZM84.2603 19.2345C84.4233 19.9318 84.5862 20.6292 84.6948 21.3265C84.8034 21.8093 85.075 22.5603 84.5862 22.8822C84.4776 22.9358 83.5543 23.204 83.8801 23.4722C83.9888 23.5795 84.5862 23.3649 84.7491 23.3113C85.1293 23.204 85.5638 23.0967 85.944 22.9894C87.4105 22.6139 88.8769 22.2921 90.289 21.863C90.8322 21.702 90.7778 21.4338 90.2347 21.4875C89.6373 21.5411 89.4743 21.5947 89.1485 21.0047C88.8769 20.5219 88.7683 19.9318 88.6053 19.3954C88.4424 18.6981 88.2251 17.9471 88.0622 17.2497C87.8993 16.5524 87.682 15.8014 87.5191 15.104C87.4105 14.514 87.0303 13.6557 87.1932 13.012C87.3018 12.4756 88.0622 12.6365 88.1708 12.2074C88.3338 11.6709 86.8673 12.2074 86.6501 12.261C85.2379 12.6365 83.8258 13.012 82.4137 13.3339C82.1421 13.3875 81.7619 13.4411 81.4904 13.6021C81.2731 13.763 81.3274 13.9239 81.599 13.9776C81.9249 14.0312 82.1964 13.8166 82.5223 14.0312C82.7396 14.1921 82.8482 14.4603 82.9025 14.7285C83.4999 16.2305 83.8801 17.7325 84.2603 19.2345ZM96.3177 16.016C95.6117 15.0504 94.9056 14.0848 94.2539 13.1193C94.3625 13.2266 94.2539 13.4948 94.2539 13.6021C94.1995 13.9239 94.1996 14.2994 94.1996 14.6213C94.1452 15.3186 94.1452 15.9623 94.0909 16.6597C94.797 16.4451 95.5574 16.2305 96.3177 16.016ZM93.9823 17.0352C93.9823 17.4107 93.9823 17.8398 94.0366 18.2153C94.0909 18.6981 94.3625 18.9663 94.6884 19.2881C94.9599 19.5563 95.2315 19.8246 95.666 19.9318C95.9376 19.9855 96.7522 20.0391 96.2091 20.361C95.8832 20.5755 95.2858 20.6292 94.9056 20.6828C94.3625 20.8438 93.8194 20.951 93.2762 21.112C92.7874 21.2192 92.2443 21.3802 91.7555 21.4875C91.4839 21.5411 90.9408 21.6484 91.321 21.2729C91.5382 21.0583 91.8098 20.8974 92.027 20.6828C92.2986 20.361 92.4615 20.0391 92.6245 19.6636C92.9504 18.859 93.1676 18.0544 93.3305 17.1961C93.4935 16.1769 93.5478 15.1577 93.6564 14.1385C93.7107 13.4411 94.0909 12.3683 93.1676 12.1537C92.9504 12.1001 92.5159 12.1537 92.3529 11.9928C92.0814 11.6709 92.9504 11.51 93.1676 11.4564C94.0909 11.1345 94.9056 10.4908 95.5574 9.84711C95.7203 9.68619 96.1548 9.04248 96.4264 9.04248C96.6979 9.04248 97.1324 9.84711 97.2954 10.0617C97.9471 10.9736 98.5989 11.8319 99.2506 12.6901C99.9024 13.5484 100.5 14.4067 101.152 15.2113C101.695 15.9623 102.238 16.8206 102.89 17.4643C103.215 17.7325 103.433 17.8934 103.867 17.8934C104.084 17.8934 104.682 17.9471 104.247 18.2153C103.867 18.4299 103.324 18.4835 102.89 18.5908C102.346 18.7517 101.803 18.859 101.315 19.0199C100.174 19.3418 98.9791 19.61 97.8385 19.9318C97.7299 19.9855 97.404 20.0928 97.2954 20.0391C97.1324 19.9318 97.2411 19.7709 97.3497 19.6636C97.6756 19.3954 98.1644 19.3954 98.2187 18.859C98.273 18.3762 97.8928 17.8398 97.6213 17.4643C97.404 17.1424 97.1324 16.6597 96.8066 16.3915C96.535 16.2305 96.1005 16.4451 95.8289 16.4987C95.1229 16.7669 94.5254 16.9279 93.9823 17.0352Z" fill="white"/>
</g>
<defs>
<clipPath id="clip0_14_32">
<rect width="108" height="32" fill="white"/>
</clipPath>
</defs>
</svg>
