<svg width="108" height="32" viewBox="0 0 108 32" fill="none" xmlns="http://www.w3.org/2000/svg"><g clip-path="url(#clip0_14_32)"><path fill-rule="evenodd" clip-rule="evenodd" d="M0 0h62.1v32h-54C3.627 32 0 28.418 0 24V0z" fill="#EF3B3B"/><path d="M16.19 20.686c-.202.134-.405.335-.607.469-.202.134-.472.334-.742.468s-.54.268-.877.335c-.337.067-.675.134-1.08.134-.54 0-1.011-.067-1.484-.268-.472-.134-.809-.401-1.146-.67-.338-.334-.607-.669-.742-1.07-.203-.402-.27-.938-.27-1.406 0-.603.135-1.071.337-1.54.203-.469.54-.87.877-1.205.405-.335.81-.535 1.35-.736.539-.201 1.146-.268 1.753-.268.472 0 .877 0 1.282.067s.742.134 1.08.2v-.468c0-.268-.068-.469-.136-.736-.067-.201-.202-.469-.404-.603-.203-.2-.473-.335-.742-.468-.338-.134-.675-.134-1.147-.134-.54 0-1.08.067-1.62.2-.539.134-1.146.335-1.753.536v-2.075c.54-.268 1.147-.402 1.754-.536a9.232 9.232 0 011.956-.2c.81 0 1.484.066 2.091.267.607.2 1.08.469 1.484.803.405.335.675.737.877 1.206.203.468.27.937.27 1.54v5.956c0 .536 0 1.005.068 1.406H16.19v-1.205zm-.202-3.414c-.27-.067-.54-.134-.877-.134-.338-.067-.675-.067-1.012-.067-.675 0-1.147.134-1.552.402-.404.268-.54.67-.54 1.205 0 .268.068.468.136.67.067.2.202.334.337.468s.337.2.54.268c.202.067.404.067.607.067.27 0 .54-.067.742-.134.27-.067.472-.134.674-.268.203-.134.405-.2.54-.335l.405-.401v-1.741zm10.456 4.887c-1.08 0-2.024-.2-2.699-.535a3.477 3.477 0 01-1.619-1.473 2.854 2.854 0 01-.404-1.138 8.188 8.188 0 01-.135-1.34v-6.627h2.698v6.36c0 .335 0 .67.067.937.068.268.135.469.27.67.203.334.405.602.742.736.338.134.742.268 1.215.268.472 0 .877-.067 1.214-.268.337-.2.607-.469.742-.803.202-.335.27-.87.27-1.473v-6.427h2.698v6.628c0 .87-.135 1.606-.472 2.209-.203.335-.405.67-.675.937-.27.268-.607.536-.944.736-.405.201-.81.335-1.282.47-.54.066-1.08.133-1.686.133zm14.436-.335c-.27.067-.675.134-1.08.201-.404.067-.809.067-1.146.067-.945 0-1.687-.134-2.226-.469a2.245 2.245 0 01-1.215-1.271c-.202-.402-.27-.938-.27-1.607V13.12H32.92v-2.209h2.024V7.9h2.698v3.012h3.17v2.21h-3.17v5.288c0 .402.067.736.202.937.203.335.675.536 1.35.536.337 0 .607 0 .944-.067.337-.067.607-.134.877-.2v2.208h-.135zm9.781-5.355c0-.603-.067-1.071-.202-1.54-.135-.469-.337-.803-.54-1.138-.27-.335-.54-.536-.877-.67a2.815 2.815 0 00-1.079-.2c-.405 0-.742.067-1.08.2-.337.134-.607.402-.876.67-.27.268-.405.67-.54 1.138-.202.469-.27.937-.27 1.54 0 .602.068 1.07.203 1.54.135.468.337.803.54 1.07.269.268.539.536.876.67.337.134.675.2 1.08.2.404 0 .742-.066 1.079-.2.337-.134.607-.402.877-.67.27-.267.405-.669.54-1.07.202-.47.27-1.005.27-1.54zm2.766 0c0 .87-.135 1.606-.405 2.343-.27.67-.607 1.272-1.079 1.807a5.28 5.28 0 01-1.754 1.138c-.675.268-1.416.402-2.294.402-.877 0-1.619-.134-2.293-.402a5.28 5.28 0 01-1.754-1.138c-.472-.468-.81-1.07-1.08-1.807-.27-.67-.404-1.473-.404-2.343 0-.87.135-1.607.405-2.343.27-.67.607-1.272 1.079-1.808a5.28 5.28 0 011.754-1.138c.675-.268 1.417-.402 2.294-.402s1.618.134 2.293.402a5.28 5.28 0 011.754 1.138c.472.469.81 1.071 1.08 1.808.27.67.404 1.472.404 2.343z" fill="#fff"/><path d="M108 0H63.45v32H108V0z" fill="#1F2024"/><path d="M93.82 28.944c0-.43.706-.537.706-.054 0 .483-.706.536-.706.054zm3.259.161c-1.25.643-2.227-.376-1.793-1.61.218-.536.598-.965 1.195-1.073.217-.053.76-.16.924 0 .108.108 0 .215-.055.43-.76-.376-1.52.268-1.63 1.019-.162.912.598 1.234 1.359.858-.055.161-.055.268 0 .376zm3.149-1.556c0 .75-.434 1.502-1.195 1.716-.76.215-1.466-.321-1.466-1.126 0-.697.434-1.502 1.14-1.716.815-.215 1.521.268 1.521 1.126zm-2.172.59c0 .536.434.966.977.697.49-.214.76-.912.706-1.394-.054-.483-.434-.805-.923-.644-.489.16-.76.858-.76 1.341zm2.553 1.073c.108-.483.217-1.02.271-1.502.054-.161.054-.376.109-.537 0-.107.054-.643.108-.697.055-.053.326 0 .435 0 0 .161-.054.376-.054.537.271-.269.488-.537.923-.59.38 0 .706.214.706.643.272-.429.978-.858 1.466-.483.381.322.272.859.163 1.234-.054.43-.163.805-.217 1.234-.054.375-.163.268-.543.268.109-.483.163-.912.272-1.395.054-.214.108-.482.054-.75-.109-.43-.489-.43-.815-.215-.489.322-.543 1.02-.597 1.556 0 .16-.055.643-.163.75-.055 0-.272-.053-.435-.053.109-.43.163-.912.272-1.341.108-.483.163-1.448-.652-1.02-.543.323-.597 1.02-.706 1.556-.054.161-.054.644-.163.751-.054.107-.326.054-.434.054z" fill="#fff"/><path fill-rule="evenodd" clip-rule="evenodd" d="M80.241 9.364c-1.52-.214-3.041-.429-4.616-.643 1.575-.376 3.15-.805 4.725-1.18.217-.054.217-.054.326-.162.163-.268.217-.804.326-1.072.217-.751.434-1.556.651-2.307a67.718 67.718 0 002.173 1.877c.217.161.597.644.869.751.109 0 .326-.053.434-.107 2.227-.483 4.454-.965 6.627-1.448l2.118-.483c-2.39 1.287-4.78 2.629-7.17 3.916.87.75 1.684 1.448 2.553 2.2-1.63-.215-3.204-.43-4.834-.698-.543-.054-.543-.054-1.032.215-.814.482-1.629 1.019-2.444 1.502-.651.375-1.303.804-1.9 1.18.38-1.18.76-2.36 1.194-3.54zm-7.441 9.28c.055.269.326 1.878.544 1.932.217.053.706-.161.923-.215.543-.161 1.032-.376 1.032-.966s-.109-1.233-.272-1.77c-.109-.429-.271-1.073-.652-1.395-.38-.321-1.303-.107-1.683.162-.598.482 0 1.716.108 2.252zm.652 2.414c.217.859.489 1.717.706 2.575.163.537.326 1.61.978 1.717.163 0 .597-.161.76 0 .217.268-.38.375-.489.429-.869.214-1.738.429-2.552.643-.272.054-3.368 1.073-3.476.698-.055-.215.271-.268.38-.322.326-.16.434-.375.434-.751 0-.805-.326-1.556-.489-2.307a67.227 67.227 0 00-1.303-4.72c-.109-.376-.217-1.02-.652-1.18-.217-.107-.543.107-.76.053-.435-.214.108-.429.326-.482 1.738-.483 3.476-.912 5.214-1.341 1.575-.43 3.204-.912 4.888-.912 1.52 0 2.39 1.663 1.955 3.057-.271.751-.978 1.127-1.63 1.502-.868.483-1.846.698-2.824.966.815.268 1.576.375 2.39.107.326-.107.652-.268.978-.429.163-.107.489-.322.706-.268.217.053.271.375.326.536.109.322.326.644.543.966.489.643 1.086 1.287 1.792 1.716.272.161.543.268.87.268.162 0 .434-.053.38.215-.055.215-.598.268-.76.322l-1.304.322c-.815.214-1.684.429-2.499.643-.217.054-.597.269-.815.108-.217-.108-.38-.59-.543-.805l-1.629-2.253c-.217-.268-.543-.965-.869-1.18-.271-.215-.76.054-1.032.107zm10.808-1.823c.163.697.326 1.394.435 2.091.108.483.38 1.234-.109 1.556-.108.054-1.032.322-.706.59.109.107.706-.107.87-.16.38-.108.814-.215 1.194-.323 1.466-.375 2.933-.697 4.345-1.126.543-.161.489-.43-.054-.375-.598.053-.76.107-1.087-.483-.271-.483-.38-1.073-.543-1.61-.163-.697-.38-1.448-.543-2.145-.163-.698-.38-1.449-.543-2.146-.109-.59-.489-1.448-.326-2.092.109-.536.87-.376.978-.805.163-.536-1.304 0-1.52.054-1.413.376-2.825.751-4.237 1.073-.272.053-.652.107-.924.268-.217.161-.163.322.109.376.326.053.597-.161.923.053.218.161.326.43.38.697.598 1.502.978 3.005 1.358 4.507zm12.058-3.219c-.706-.966-1.412-1.931-2.064-2.897.108.108 0 .376 0 .483-.055.322-.054.697-.054 1.02-.055.697-.055 1.34-.11 2.038.707-.215 1.467-.43 2.228-.644zm-2.336 1.02c0 .375 0 .804.055 1.18.054.482.325.75.651 1.072.272.268.543.537.978.644.272.053 1.086.107.543.429-.326.215-.923.268-1.303.322-.544.16-1.087.268-1.63.429-.489.107-1.032.268-1.52.376-.272.053-.815.16-.435-.215.217-.215.489-.376.706-.59.272-.322.434-.644.597-1.02.326-.804.544-1.609.707-2.467.162-1.02.217-2.038.325-3.058.055-.697.435-1.77-.488-1.984-.218-.054-.652 0-.815-.161-.272-.322.597-.483.815-.537.923-.322 1.738-.965 2.39-1.609.162-.16.597-.805.868-.805.272 0 .706.805.87 1.02.651.912 1.303 1.77 1.955 2.628.651.858 1.249 1.717 1.901 2.521.543.751 1.086 1.61 1.738 2.253.325.269.543.43.977.43.217 0 .815.053.38.321-.38.215-.923.268-1.357.376-.544.16-1.087.268-1.575.429-1.141.322-2.336.59-3.477.912-.108.053-.434.16-.543.107-.163-.107-.054-.268.055-.375.326-.269.814-.269.869-.805.054-.483-.326-1.02-.598-1.395-.217-.322-.489-.804-.814-1.072-.272-.162-.707.053-.978.107-.706.268-1.304.429-1.847.536z" fill="#fff"/></g><defs><clipPath id="clip0_14_32"><path fill="#fff" d="M0 0h108v32H0z"/></clipPath></defs></svg>